<svg width="24" height="27" viewBox="0 0 24 27" fill="none" xmlns="http://www.w3.org/2000/svg">
<path d="M23.7901 25.5418L17.9577 19.2245C19.5222 17.2762 20.4694 14.7343 20.4694 11.956C20.4694 5.84043 15.877 0.871857 10.2362 0.871857C4.59007 0.871857 0.00292969 5.84619 0.00292969 11.956C0.00292969 18.0659 4.59539 23.0402 10.2362 23.0402C12.8011 23.0402 15.1479 22.0142 16.9466 20.3196L22.779 26.637C22.9173 26.7868 23.1036 26.8675 23.2845 26.8675C23.4654 26.8675 23.6517 26.7926 23.7901 26.637C24.0668 26.3372 24.0668 25.8415 23.7901 25.5418ZM1.43441 11.956C1.43441 6.69927 5.38297 2.42814 10.2309 2.42814C15.0841 2.42814 19.0273 6.70503 19.0273 11.956C19.0273 17.2071 15.0841 21.4897 10.2309 21.4897C5.38297 21.4897 1.43441 17.2128 1.43441 11.956Z" fill="#00B372"/>
</svg>
